# xmcd
#
# Track frame offsets:
# 150
# 12485
# 27850
# 45466
#
# Disc length: 784 seconds
#
# Revision: 0
# Processed by: cddbd v1.5.2PL0 Copyright (c) Steve Scherf et al.
# Submitted via: Axialis_AX_CDPlayer 2.6
#
DISCID=26030e04
DTITLE=NIKKI HILL - NIKKI HILL
DYEAR=1900
DGENRE=
TTITLE0=I'VE GOT A MAN
TTITLE1=HER DESTINATION
TTITLE2=DON'T CRY ANYMORE
TTITLE3=STRAPPED TO THE BEAT
EXTD=
EXTT0=
EXTT1=
EXTT2=
EXTT3=
PLAYORDER=
